<svg width="36" height="36" viewBox="0 0 36 36" fill="none" xmlns="http://www.w3.org/2000/svg">
<path d="M8.75827 15.2032C5.45607 15.9886 3 18.9574 3 22.5C3 26.6421 6.35786 30 10.5 30C11.2105 30 11.898 29.9012 12.5494 29.7166" stroke="black" stroke-width="2" stroke-linecap="round" stroke-linejoin="round"/>
<path d="M27.041 15.2032C30.3433 15.9886 32.7993 18.9574 32.7993 22.5C32.7993 26.6421 29.4415 30 25.2993 30C24.5888 30 23.9013 29.9012 23.2499 29.7166" stroke="black" stroke-width="2" stroke-linecap="round" stroke-linejoin="round"/>
<path d="M27 15C27 10.0295 22.9705 6 18 6C13.0295 6 9 10.0295 9 15" stroke="black" stroke-width="2" stroke-linecap="round" stroke-linejoin="round"/>
<path d="M12.7991 22.5892L17.9999 27.8073L23.3489 22.5" stroke="black" stroke-width="2" stroke-linecap="round" stroke-linejoin="round"/>
<path d="M18 15V25.1537" stroke="black" stroke-width="2" stroke-linecap="round" stroke-linejoin="round"/>
</svg>
