<?xml version="1.0" encoding="utf-8"?>
<!-- Generator: Adobe Illustrator 24.0.1, SVG Export Plug-In . SVG Version: 6.00 Build 0)  -->
<svg version="1.1" id="Layer_1" xmlns="http://www.w3.org/2000/svg" xmlns:xlink="http://www.w3.org/1999/xlink" x="0px" y="0px"
	 viewBox="0 0 62 62" style="enable-background:new 0 0 62 62;" xml:space="preserve">
<g>
	<g>
		<path d="M31.4,58c0,0,0,0.1,0,0.1C31.4,58.1,31.4,58,31.4,58C31.4,58,31.4,58,31.4,58z"/>
		<path d="M44.3,20c-0.2,0.1-0.3,0.2-0.4,0.4c0-0.1,0.1-0.2,0.2-0.3C44.2,20,44.2,20,44.3,20z"/>
	</g>
	<path d="M56.1,33c-3.2,3.1-6.3,6.2-9.3,9.3c-0.8,0.8-1.6,1.4-2.6,0.5c-1-1-0.5-1.9,0.4-2.8c2.3-2.2,4.5-4.5,7.2-7.1H20.1
		c-0.1,0-0.2,0-0.3,0h0c-0.9,0-1.5-0.6-1.6-1.5c0,0,0-0.1,0-0.1c0-0.1,0-0.1,0-0.2s0-0.1,0-0.1c0.1-0.7,0.7-1.3,1.4-1.4
		c0.2,0,0.4,0,0.5,0h30.9c0.1-0.1,0.2-0.3,0.3-0.4c-2-1.9-4-3.8-6-5.8c-0.3-0.3-0.6-0.5-0.9-0.8c0,0,0,0,0,0
		c-0.2-0.2-0.3-0.4-0.4-0.6c-0.2-0.5-0.3-1.3-0.1-1.8c0.1-0.2,0.2-0.3,0.4-0.4c0.5-0.2,1.2-0.3,1.6-0.1c0,0,0.1,0,0.1,0
		c0,0,0.1,0,0.1,0.1c0,0,0,0,0,0c0,0,0.1,0,0.1,0.1c0,0,0,0,0,0c0,0,0.1,0,0.1,0.1c0,0,0,0,0,0c0,0,0.1,0,0.1,0.1
		c1.2,0.9,2.2,2.1,3.3,3.2c2.1,2.1,4.3,4.3,6.4,6.4C57.3,30.9,57.3,31.9,56.1,33z"/>
	<path d="M44.5,22.7c-0.5-0.3-0.9-0.8-0.9-1.4c0-0.4,0.1-0.7,0.3-0.9c-0.1,0.5,0,1.3,0.1,1.8C44.1,22.3,44.3,22.5,44.5,22.7z"/>
	<path d="M45.3,19.6c0.3,0,0.6,0.1,0.9,0.3c0,0-0.1,0-0.1-0.1c0,0-0.1,0-0.1,0c-0.5-0.2-1.2-0.1-1.6,0.1
		C44.6,19.8,44.9,19.6,45.3,19.6z"/>
	<path d="M8,14.6v33.8c0,5,2.9,7.9,7.8,7.9c4.2,0,8.5,0,12.7,0c0.5,0,1.2-0.1,1.6,0.1c0,0,0,0,0,0c0.7,0.1,1.3,0.7,1.3,1.5
		c0,0,0,0,0,0c0,0.1,0,0.1,0,0.2c-0.1,0.4-0.7,1-1.2,1.2c0,0,0,0,0,0c-0.1,0-0.2,0.1-0.2,0.1c-1.8,0.2-3.7,0.1-5.5,0.1
		c-3,0-6.1,0-9.1,0C9.3,59.5,4.8,55,4.7,49c0-5.8,0-11.7,0-17.7c0-5.7,0.1-11.3,0-17C4.6,7.7,9.8,2.9,16,3.1c4.3,0.2,8.7,0,13.1,0
		c0.4,0,0.8,0,1.2,0c0.1,0,0.2,0,0.3,0c0.9,0,1.6,0.7,1.6,1.6c0,0.9-0.7,1.6-1.6,1.6c-0.2,0-0.3,0-0.4-0.1c-0.4,0-0.8,0-1.2,0
		c-4.2,0-8.5,0-12.7,0C10.8,6.3,8,9.2,8,14.6z"/>
	<path d="M31.4,58.2c-0.1,0.6-0.6,1.1-1.2,1.2C30.7,59.2,31.3,58.6,31.4,58.2z"/>
</g>
</svg>
