<svg width="40" height="40" viewBox="0 0 40 40" fill="none" xmlns="http://www.w3.org/2000/svg">
<path d="M24.0786 17.3947C24.0786 17.6751 23.8606 17.8955 23.5832 17.8955H17.837V23.7045C17.837 23.985 17.619 24.2053 17.3416 24.2053C17.0642 24.2053 16.8462 23.985 16.8462 23.7045V17.8955H11.1C10.8226 17.8955 10.6046 17.6751 10.6046 17.3947C10.6046 17.1142 10.8226 16.8939 11.1 16.8939H16.8462V11.0848C16.8462 10.8044 17.0642 10.584 17.3416 10.584C17.619 10.584 17.837 10.8044 17.837 11.0848V16.8939H23.5832C23.8606 16.8939 24.0786 17.1142 24.0786 17.3947Z" fill="white"/>
<path d="M39.5536 38.0269L29.4085 29.093C32.2618 26.0682 34.0055 21.9818 34.0055 17.4948C34.0055 8.22032 26.5552 0.688538 17.4008 0.688538C8.22667 0.688538 0.776367 8.22032 0.776367 17.4948C0.776367 26.7493 8.22667 34.3011 17.4008 34.3011C21.6214 34.3011 25.4852 32.6986 28.4178 30.0745L38.6619 39.0886C38.8006 39.2088 38.9592 39.2689 39.1177 39.2689C39.3158 39.2689 39.4942 39.1888 39.6329 39.0285C39.8706 38.708 39.8508 38.2673 39.5536 38.0269ZM2.16339 17.4948C2.16339 9.00154 8.99944 2.09073 17.4008 2.09073C25.8022 2.09073 32.6383 9.00154 32.6383 17.4948C32.6383 25.9881 25.8022 32.8989 17.4008 32.8989C8.99944 32.8789 2.16339 25.9881 2.16339 17.4948Z" fill="white"/>
</svg>
